<svg xmlns="http://www.w3.org/2000/svg"><symbol xmlns="http://www.w3.org/2000/svg" id="icons:81170" iconId="81170" viewBox="0 0 48 48"><g xmlns:default="http://www.w3.org/2000/svg"><g><path d="M4.5,47.5c-0.982,0-2.416-0.127-3.516-1.227c-0.944-0.943-1.465-2.199-1.465-3.535s0.521-2.591,1.465-3.535    c0.391-0.392,1.023-0.392,1.414,0c0.391,0.391,0.391,1.023,0,1.414c-0.566,0.566-0.879,1.319-0.879,2.121    c0,0.803,0.313,1.555,0.879,2.121C2.848,45.31,3.477,45.5,4.5,45.5c1.037,0,1.697-0.197,2.141-0.641    c0.391-0.391,1.023-0.391,1.414,0c0.391,0.391,0.391,1.023,0,1.414C6.955,47.373,5.499,47.5,4.5,47.5z"/><path d="M8.762,46.566L8.762,46.566c-0.266,0-0.52-0.105-0.707-0.293l-7.07-7.07c-0.391-0.392-0.391-1.023,0-1.414l20.506-20.506    c0.375-0.375,1.039-0.375,1.414,0l7.072,7.071c0.188,0.188,0.293,0.441,0.293,0.707s-0.105,0.52-0.293,0.707L9.469,46.273    C9.281,46.461,9.027,46.566,8.762,46.566z M3.105,38.496l5.656,5.657l19.092-19.092l-5.657-5.657L3.105,38.496z"/><path d="M7.348,40.91c-0.256,0-0.512-0.098-0.707-0.293c-0.391-0.391-0.391-1.023,0-1.414l16.264-16.264    c0.391-0.391,1.023-0.391,1.414,0c0.391,0.391,0.391,1.023,0,1.414L8.055,40.617C7.859,40.813,7.604,40.91,7.348,40.91z"/><path d="M27.146,23.939c-0.256,0-0.513-0.098-0.707-0.293c-0.392-0.391-0.392-1.023,0-1.414l9.191-9.192    c0.153-0.153,0.352-0.252,0.564-0.283l4.451-0.636l4.328-8.039l-1.632-1.397L35.13,6.64l-0.631,4.422    c-0.031,0.214-0.13,0.413-0.283,0.565l-9.192,9.192c-0.391,0.391-1.022,0.391-1.414,0c-0.391-0.391-0.391-1.023,0-1.414    l8.957-8.957l0.66-4.62c0.047-0.33,0.256-0.615,0.557-0.759L43.064,0.6c0.356-0.171,0.783-0.117,1.084,0.142l2.738,2.347    c0.357,0.306,0.453,0.819,0.23,1.233l-4.949,9.192c-0.15,0.279-0.425,0.471-0.738,0.516l-4.621,0.66l-8.957,8.957    C27.658,23.841,27.402,23.939,27.146,23.939z"/></g><path d="M40.5,47.5c-4.411,0-8-3.588-8-8c0-4.41,3.589-8,8-8s8,3.59,8,8C48.5,43.912,44.911,47.5,40.5,47.5z M40.5,33.5   c-3.309,0-6,2.691-6,6c0,3.31,2.691,6,6,6s6-2.69,6-6C46.5,36.191,43.809,33.5,40.5,33.5z"/><path d="M40.5,43.5c-2.206,0-4-1.793-4-4c0-2.205,1.794-4,4-4s4,1.795,4,4C44.5,41.707,42.706,43.5,40.5,43.5z M40.5,37.5   c-1.104,0-2,0.897-2,2c0,1.104,0.896,2,2,2s2-0.896,2-2C42.5,38.397,41.604,37.5,40.5,37.5z"/><path d="M7.5,15.5c-4.411,0-8-3.589-8-8c0-2.689,1.346-5.367,3.428-6.82c0.305-0.214,0.705-0.24,1.034-0.067   C4.293,0.787,4.5,1.127,4.5,1.5v5.382l3,1.5l3-1.5V1.5c0-0.373,0.207-0.714,0.538-0.887c0.328-0.173,0.729-0.147,1.034,0.067   C14.154,2.133,15.5,4.811,15.5,7.5C15.5,11.912,11.911,15.5,7.5,15.5z M2.5,4.009c-0.634,1.021-1,2.252-1,3.491   c0,3.309,2.691,6,6,6s6-2.691,6-6c0-1.239-0.366-2.47-1-3.491V7.5c0,0.379-0.214,0.725-0.553,0.895l-4,2   c-0.281,0.141-0.613,0.141-0.895,0l-4-2C2.714,8.226,2.5,7.879,2.5,7.5V4.009z"/><path d="M33.5,40.5c-0.256,0-0.512-0.098-0.707-0.293l-9-9c-0.391-0.391-0.391-1.022,0-1.414c0.391-0.391,1.023-0.391,1.414,0l9,9   c0.391,0.392,0.391,1.023,0,1.414C34.012,40.402,33.756,40.5,33.5,40.5z"/><path d="M16.5,23.5c-0.256,0-0.512-0.098-0.707-0.293l-8-8c-0.391-0.391-0.391-1.023,0-1.414s1.023-0.391,1.414,0l8,8   c0.391,0.391,0.391,1.023,0,1.414C17.012,23.402,16.756,23.5,16.5,23.5z"/><path d="M21.5,19.5c-0.234,0-0.469-0.082-0.658-0.248l-8-7c-0.416-0.364-0.458-0.995-0.095-1.411   c0.364-0.416,0.996-0.458,1.411-0.094l8,7c0.416,0.364,0.458,0.995,0.095,1.411C22.055,19.384,21.778,19.5,21.5,19.5z"/><path d="M38.499,33.5c-0.22,0-0.438-0.072-0.624-0.219l-10-8c-0.432-0.345-0.501-0.974-0.156-1.405   c0.346-0.431,0.975-0.502,1.406-0.156l10,8c0.432,0.345,0.501,0.974,0.156,1.404C39.083,33.373,38.793,33.5,38.499,33.5z"/></g></symbol><symbol xmlns="http://www.w3.org/2000/svg" id="icons:1639435" iconId="1639435" viewBox="0 0 91 91"><g xmlns:default="http://www.w3.org/2000/svg"><path d="M81.7,79.6c-5.2,0-8.7,4.2-8.9,4.5c-0.4,0.4-1.6,1.6-2.9,1.7c-0.8,0-1.7-0.6-2.8-1.8c-2.5-2.9-5.4-4.3-8.6-4.3   c-4.8,0-8.2,3.7-8.9,4.5c-0.4,0.4-1.6,1.6-2.9,1.7c-0.7,0-1.7-0.6-2.7-1.8c-2.5-2.9-5.4-4.3-8.6-4.3c-5.2,0-8.7,4.2-8.9,4.5   c-0.4,0.4-1.6,1.6-2.9,1.7c-0.7,0-1.7-0.6-2.7-1.8c-2.5-2.9-5.4-4.3-8.6-4.3c-4.8,0-8.2,3.7-8.8,4.4c-0.8,0.9-0.6,2.2,0.2,3   c0.9,0.7,2.2,0.6,3-0.2c0.1-0.1,2.5-2.9,5.7-2.9c1.9,0,3.7,0.9,5.4,2.9c2.4,2.8,4.7,3.3,6.1,3.2c3.5-0.1,6-3.2,6-3.2c0,0,0,0,0,0   c0,0,2.4-2.9,5.7-2.9c1.9,0,3.7,1,5.4,2.9c2.3,2.6,4.4,3.2,5.8,3.2c0.1,0,0.2,0,0.3,0c3.5-0.1,6-3.2,6-3.2c0.1-0.1,2.5-2.9,5.7-2.9   c1.9,0,3.7,1,5.4,2.9c2.4,2.8,4.7,3.3,6.1,3.2c3.5-0.1,6-3.2,6-3.2c0,0,0,0,0,0c0,0,2.4-2.9,5.6-2.9c1.9-0.1,3.7,1,5.4,2.9   c0.8,0.9,2.1,1,3,0.2c0.9-0.8,1-2.1,0.2-3C87.8,81.1,84.8,79.6,81.7,79.6z"/><path d="M45.2,62.3c-1-0.6-2.3-0.4-2.9,0.6c-0.6,1-0.4,2.3,0.6,2.9c1.2,0.8,2.6,1.2,4.1,1.2c1.5,0,3-0.5,4.2-1.3   c0.9-0.7,1.2-2,0.5-2.9c-0.7-0.9-2-1.2-2.9-0.5C47.7,63,46.2,63,45.2,62.3z"/><path d="M68.6,70.8c0.7,0.2,1.4,0.2,2,0.2c0,0,0,0,0,0c0,0,0,0,0,0c0,0,0,0,0.1,0c0,0,0,0,0,0c0.1,0,0.1,0,0.2,0   c1.1,0,2.2-0.2,3.3-0.7c1.6-0.7,2.9-1.9,4-3c0.3-0.3,0.5-0.5,0.8-0.8c1.3-1.2,2.5-1.8,3.4-1.7c1.2,0,2.4,1.1,3.5,2.1   c0.8,0.8,2.2,0.8,3,0c0.8-0.8,0.8-2.2,0-3c-1.6-1.6-3.6-3.2-6.2-3.3c-2-0.1-4.1,0.8-6.3,2.8c-0.3,0.3-0.6,0.5-0.9,0.8   c-1,0.9-1.9,1.7-2.9,2.2c-0.5,0.2-1.1,0.3-1.7,0.3c0,0,0,0,0,0c0,0,0,0,0,0c-0.5,0-0.8,0-1.1-0.1c-1.2-0.3-2.2-1.3-3.3-2.4L66,64   c-0.8-0.8-2.2-0.8-3,0c-0.8,0.8-0.8,2.2,0,3l0.3,0.3C64.8,68.7,66.4,70.2,68.6,70.8z"/><path d="M26.9,63.5c-0.3,0.3-0.6,0.5-0.9,0.8c-1,0.9-1.9,1.7-2.9,2.2c-0.5,0.2-1.1,0.3-1.7,0.3c0,0,0,0,0,0c0,0,0,0,0,0   c-0.5,0-0.8,0-1.1-0.1c-1.2-0.3-2.2-1.3-3.3-2.4L16.7,64c-1.6-1.6-3.6-3.2-6.2-3.3c-2-0.1-4.1,0.8-6.3,2.8c-0.9,0.8-0.9,2.1-0.2,3   c0.8,0.9,2.1,0.9,3,0.2c1.3-1.2,2.5-1.8,3.4-1.7c1.2,0,2.4,1.1,3.5,2.1l0.3,0.3c1.4,1.4,3,2.9,5.3,3.5c0.7,0.2,1.4,0.2,2,0.2   c0,0,0,0,0,0c0,0,0,0,0,0c0,0,0,0,0.1,0c0,0,0,0,0,0c0.1,0,0.1,0,0.2,0c1.1,0,2.2-0.2,3.3-0.7c1.6-0.7,2.9-1.9,4-3   c0.3-0.3,0.5-0.5,0.8-0.8c0.9-0.8,0.9-2.1,0.2-3C29.1,62.8,27.8,62.7,26.9,63.5z"/><path d="M2.9,37c0,1.2,0.9,2.1,2.1,2.1h25.6c1.9,2,4.1,3.2,6.6,3.2h8C43,44.7,34.2,55.1,34.2,61.2C34.2,68.2,39.9,74,47,74   c7.1,0,12.8-5.7,12.8-12.8c0-6.5-10.1-18-11.2-19.3c0,0-0.1-0.1-0.1-0.1c5.5-2,9.6-10.3,9.6-20.4C58,9.6,52.6,0.4,45.7,0.4h-8.6   c-2.4,0-4.7,1.2-6.6,3.2H5c-1.2,0-2.1,0.9-2.1,2.1S3.8,7.8,5,7.8h22.7c-1.8,3.6-2.9,8.3-2.9,13.6c0,5.2,1.1,9.9,2.9,13.6H5   C3.8,34.9,2.9,35.8,2.9,37z M55.6,61.2c0,4.7-3.9,8.6-8.6,8.6c-4.7,0-8.6-3.9-8.6-8.6c0-3.3,4.8-10.1,8.6-14.7   C50.8,51.1,55.6,57.9,55.6,61.2z M45.7,4.6c3.8,0,8.1,6.9,8.1,16.7c0,9.9-4.3,16.7-8.1,16.7s-8.1-6.9-8.1-16.7   C37.6,11.5,41.9,4.6,45.7,4.6z M37.1,4.6h1.2c-3,3.8-4.8,9.8-4.8,16.7c0,6.9,1.9,12.9,4.8,16.7h-1.2c-3.8,0-8.1-6.9-8.1-16.7   C29,11.5,33.3,4.6,37.1,4.6z"/></g></symbol><symbol xmlns="http://www.w3.org/2000/svg" id="icons:703388" iconId="703388" viewBox="0 0 100 100"><path d="M38.056,50.996l14.885-0.003l0.678-0.005c8.579,0,15.04,1.12,18.526,2.583h-2.214v13.705h26.423V53.571h-5.673  c-2.102-16.03-22.521-17.633-29.685-17.693v-0.953c1.241-0.959,2.246-2.134,2.954-3.451h9.47V4.499H32.798v26.976h9.474  c0.708,1.316,1.71,2.488,2.95,3.446v0.304h-7.166v-1.188H4.397v29.117h33.659V50.996z M68.296,17.327h-6.245V9.624h6.245V17.327  L68.296,17.327z M49.522,17.327V9.624h7.403v7.704H49.522z M44.398,9.624v7.704h-6.475V9.624H44.398z M9.521,39.161h2.989v18.868  H9.521V39.161z M32.931,58.028H17.635V39.161h15.296v1.188h17.416v-8.253l-1.268-0.743c-1.326-0.775-2.271-1.908-2.665-3.189  L45.86,26.35h-7.937v-3.898h30.373v3.898H60.36l-0.554,1.813c-0.392,1.283-1.339,2.417-2.667,3.196l-1.268,0.743l0.001,9.118  l2.725-0.171C58.64,41.043,59.366,41,60.562,41c7.522,0,25.033,1.478,25.169,15.159l0.025,2.537h5.474v3.456H75.055v-3.456h5.124  v-2.563c0-8.936-16.642-10.271-26.561-10.271l-20.687,0.008V58.028L32.931,58.028z"/><path d="M73.746,86.864c0,5.179,4.215,9.395,9.395,9.395c5.179,0,9.395-4.216,9.395-9.395c0-2.661-2.59-17.936-9.395-17.936  C76.337,68.928,73.746,84.203,73.746,86.864z M87.41,86.864c0,2.354-1.914,4.271-4.27,4.271s-4.271-1.916-4.271-4.271  c0-3.466,2.514-11.375,4.271-12.716C84.896,75.488,87.41,83.398,87.41,86.864z"/></symbol><symbol xmlns="http://www.w3.org/2000/svg" id="icons:355006" iconId="355006" viewBox="0 0 99.997 100"><g xmlns:default="http://www.w3.org/2000/svg"><path d="M49.851,100c-4.973,0-12.985-3.453-15.242-4.473H20.319c-1.388,0-2.513-1.125-2.513-2.512c0-1.389,1.125-2.514,2.513-2.514   h14.838c0.366,0,0.729,0.08,1.062,0.236c2.529,1.178,9.911,4.236,13.632,4.236c3.813,0,11.359-3.064,13.945-4.245   c0.328-0.15,0.684-0.228,1.044-0.228h13.356c1.387,0,2.513,1.125,2.513,2.514c0,1.387-1.126,2.512-2.513,2.512H65.378   C63.104,96.535,54.917,100,49.851,100z M78.196,50.816H64.84c-1.388,0-2.513-1.125-2.513-2.512V28.46H37.67v19.845   c0,1.387-1.126,2.512-2.513,2.512H20.319c-1.388,0-2.513-1.125-2.513-2.512c0-1.389,1.125-2.514,2.513-2.514h12.324V25.946   c0-1.387,1.127-2.513,2.514-2.513H64.84c1.388,0,2.513,1.126,2.513,2.513v19.845h10.844c1.387,0,2.513,1.125,2.513,2.514   C80.709,49.691,79.583,50.816,78.196,50.816z"/><path d="M94.52,100H79.679c-1.388,0-2.514-1.125-2.514-2.512c0-1.388,1.126-2.514,2.514-2.514H94.52   c1.388,0,2.513,1.126,2.513,2.514C97.032,98.875,95.907,100,94.52,100z M94.52,46.346H79.679c-1.388,0-2.514-1.125-2.514-2.513   s1.126-2.513,2.514-2.513H94.52c1.388,0,2.513,1.125,2.513,2.513S95.907,46.346,94.52,46.346z"/><path d="M21.059,100H5.478c-1.387,0-2.513-1.125-2.513-2.512c0-1.388,1.126-2.514,2.513-2.514h15.581   c1.388,0,2.513,1.126,2.513,2.514C23.571,98.875,22.446,100,21.059,100z M21.059,46.346H5.478c-1.387,0-2.513-1.125-2.513-2.513   s1.126-2.513,2.513-2.513h15.581c1.388,0,2.513,1.125,2.513,2.513S22.446,46.346,21.059,46.346z"/><path d="M56.319,28.46H43.677c-1.387,0-2.512-1.126-2.512-2.514V12.533c0-1.387,1.125-2.513,2.512-2.513h12.643   c1.388,0,2.514,1.126,2.514,2.513v13.413C58.833,27.334,57.707,28.46,56.319,28.46z M46.19,23.434h7.617v-8.388H46.19V23.434z"/><path d="M70.775,15.046H29.222c-0.863,0-1.666-0.443-2.127-1.173c-0.189-0.304-1.868-3.046-1.868-5.811   c0-3.043,1.734-5.625,1.933-5.907c0.418-0.603,1.078-0.99,1.808-1.065C29.399,1.046,39.725,0,49.999,0   c10.519,0,20.614,1.046,21.038,1.09c0.739,0.078,1.407,0.479,1.822,1.096c0.194,0.29,1.911,2.922,1.911,5.877   c0,2.861-1.697,5.546-1.89,5.844C72.416,14.617,71.624,15.046,70.775,15.046z M30.753,10.021h38.501   c0.259-0.605,0.491-1.333,0.491-1.958c0-0.707-0.268-1.492-0.539-2.1c-3.074-0.281-11.114-0.937-19.207-0.937   c-7.936,0-16.118,0.66-19.223,0.94c-0.269,0.601-0.523,1.371-0.523,2.096C30.253,8.64,30.479,9.373,30.753,10.021z"/><path d="M91.552,59.76H77.303c-1.388,0-2.513-1.127-2.513-2.514s1.125-2.513,2.513-2.513h14.249c1.388,0,2.514,1.126,2.514,2.513   S92.939,59.76,91.552,59.76z"/><path d="M91.552,86.588H77.303c-1.388,0-2.513-1.127-2.513-2.514s1.125-2.513,2.513-2.513h14.249c1.388,0,2.514,1.126,2.514,2.513   S92.939,86.588,91.552,86.588z"/><path d="M18.837,86.588H3.995c-1.387,0-2.513-1.127-2.513-2.514s1.126-2.513,2.513-2.513h14.842c1.388,0,2.513,1.126,2.513,2.513   S20.225,86.588,18.837,86.588z"/><path d="M18.837,59.76H3.995c-1.387,0-2.513-1.127-2.513-2.514s1.126-2.513,2.513-2.513h14.842c1.388,0,2.513,1.126,2.513,2.513   S20.225,59.76,18.837,59.76z"/><path d="M94.52,100c-1.915,0-5.48,0-5.48-29.34s3.565-29.34,5.48-29.34c1.914,0,5.478,0,5.478,29.34S96.434,100,94.52,100z    M94.519,56.559c-0.271,3.889-0.453,8.66-0.453,14.102c0,5.442,0.182,10.213,0.453,14.102c0.271-3.889,0.453-8.659,0.453-14.102   C94.972,65.219,94.79,60.446,94.519,56.559z"/><path d="M79.679,100c-1.914,0-5.478,0-5.478-29.34s3.563-29.34,5.478-29.34c1.387,0,2.512,1.125,2.512,2.513   c0,0.835-0.406,1.575-1.033,2.032c-0.851,2.208-1.931,11.496-1.931,24.795c0,13.3,1.08,22.587,1.931,24.795   c0.627,0.457,1.033,1.198,1.033,2.033C82.19,98.875,81.065,100,79.679,100z"/><path d="M21.802,100c-1.914,0-5.478,0-5.478-29.34s3.563-29.34,5.478-29.34c1.387,0,2.513,1.125,2.513,2.513   c0,0.835-0.407,1.575-1.034,2.032C22.43,48.073,21.35,57.361,21.35,70.66c0,13.3,1.08,22.587,1.931,24.795   c0.627,0.457,1.034,1.198,1.034,2.033C24.314,98.875,23.188,100,21.802,100z"/><path d="M5.478,100C3.563,100,0,100,0,70.66s3.563-29.34,5.478-29.34c1.388,0,2.513,1.125,2.513,2.513   c0,0.835-0.407,1.575-1.033,2.032C6.105,48.073,5.026,57.361,5.026,70.66c0,13.3,1.079,22.587,1.931,24.795   c0.626,0.457,1.033,1.198,1.033,2.033C7.99,98.875,6.865,100,5.478,100z"/><path d="M21.802,100c-1.388,0-2.514-1.125-2.514-2.512c0-0.828,0.401-1.563,1.018-2.021c0.133-0.366,0.363-1.146,0.622-2.661   c0.234-1.37,1.543-2.278,2.897-2.057c1.369,0.232,2.288,1.53,2.057,2.897C25.479,96.023,24.802,100,21.802,100z M23.401,50.603   c-1.202,0-2.266-0.865-2.474-2.093c-0.257-1.51-0.487-2.29-0.62-2.656c-0.618-0.459-1.02-1.193-1.02-2.021   c0-1.388,1.126-2.513,2.514-2.513c3.002,0,3.677,3.974,4.08,6.35c0.231,1.367-0.688,2.664-2.057,2.896   C23.683,50.592,23.542,50.603,23.401,50.603z"/></g></symbol><symbol xmlns="http://www.w3.org/2000/svg" id="icons:62151" iconId="62151" viewBox="0 0 100 100"><path fill-rule="evenodd" clip-rule="evenodd" d="M30.667,71.104c-2-0.896-4.056-0.805-4.998-0.836  c-1.537-0.048-3.801,0.57-5.198-0.703c-0.832-0.76-1.188-2.801-1.56-4.275c-1.964-7.796-2.222-14.461-1.003-22.175  c0.433-2.742,0.72-7.34,2.526-8.899c1.543-1.33,3.586-0.803,5.373-0.848c1.182-0.031,2.859,0.082,4.859-0.83V7.968  c-4-0.31-7.85,0.311-9.452,1.264c-3.297,1.961-6.57,7.121-8.729,10.699c-6.949,11.519-8.9,22.384-9.004,32.955  c-0.109,11.319,2.125,20.938,9.047,31.699c2.169,3.373,5.426,8.013,8.848,9.988c1.984,1.146,5.295,1.142,7.549,1.073  c0.528-0.017,0.742-0.021,1.742-0.037V71.104z"/><path fill-rule="evenodd" clip-rule="evenodd" d="M40.667,7.779v88h53v-88H40.667z M48.667,18.779h36v11h-36V18.779z M52.192,85.671  c-2.962,0-5.363-2.4-5.363-5.362s2.401-5.362,5.363-5.362c2.961,0,5.362,2.4,5.362,5.362S55.153,85.671,52.192,85.671z   M52.192,70.283c-2.962,0-5.363-2.4-5.363-5.362s2.401-5.362,5.363-5.362c2.961,0,5.362,2.4,5.362,5.362  S55.153,70.283,52.192,70.283z M52.192,54.896c-2.962,0-5.363-2.4-5.363-5.362s2.401-5.362,5.363-5.362  c2.961,0,5.362,2.4,5.362,5.362S55.153,54.896,52.192,54.896z M67.113,85.671c-2.962,0-5.362-2.4-5.362-5.362s2.4-5.362,5.362-5.362  s5.362,2.4,5.362,5.362S70.075,85.671,67.113,85.671z M67.113,70.283c-2.962,0-5.362-2.4-5.362-5.362s2.4-5.362,5.362-5.362  s5.362,2.4,5.362,5.362S70.075,70.283,67.113,70.283z M67.113,54.896c-2.962,0-5.362-2.4-5.362-5.362s2.4-5.362,5.362-5.362  s5.362,2.4,5.362,5.362S70.075,54.896,67.113,54.896z M82.034,85.671c-2.961,0-5.362-2.4-5.362-5.362s2.401-5.362,5.362-5.362  c2.962,0,5.363,2.4,5.363,5.362S84.996,85.671,82.034,85.671z M82.034,70.283c-2.961,0-5.362-2.4-5.362-5.362  s2.401-5.362,5.362-5.362c2.962,0,5.363,2.4,5.363,5.362S84.996,70.283,82.034,70.283z M82.034,54.896  c-2.961,0-5.362-2.4-5.362-5.362s2.401-5.362,5.362-5.362c2.962,0,5.363,2.4,5.363,5.362S84.996,54.896,82.034,54.896z"/></symbol><symbol xmlns="http://www.w3.org/2000/svg" id="icons:45865" iconId="45865" viewBox="0 0 32 32"><path d="M14 0l-1.313 4c-1 .3-1.975.688-2.875 1.188l-3.719-1.875-2.781 2.781 1.875 3.719c-.5.9-.888 1.875-1.188 2.875l-4 1.313v4l4 1.313c.3 1 .688 1.975 1.188 2.875l-1.781 3.719 2.781 2.781 3.719-1.875c.9.5 1.906.887 2.906 1.188l1.281 4h4l1.313-4c1-.3 2.006-.688 2.906-1.188l3.688 1.781 2.813-2.781-1.906-3.719c.5-.9.887-1.906 1.188-2.906l3.906-1.188v-4l-4-1.313c-.3-1-.688-1.975-1.188-2.875l1.781-3.719-2.781-2.781-3.719 1.875c-.9-.5-1.906-.888-2.906-1.188l-1.188-4h-4zm2 9c3.9 0 7 3.1 7 7s-3.1 7-7 7-7-3.1-7-7 3.1-7 7-7z"/></symbol><symbol xmlns="http://www.w3.org/2000/svg" id="icons:8663" iconId="8663" viewBox="0 0 100 100"><g display="none"><rect x="-192" display="inline" width="185" height="99"/><rect y="-36" display="inline" width="100" height="30"/><line display="inline" stroke="#FFFFFF" stroke-miterlimit="10" x1="8" y1="-14.5" x2="18" y2="-14.5"/><line display="inline" stroke="#FFFFFF" stroke-miterlimit="10" x1="-179" y1="16.5" x2="-162" y2="16.5"/><g display="inline"><g><g><rect x="-170.802" y="31.318" width="8.721" height="8.642"/><path d="M-164.455,42.312h4.747v-4.703h-4.747V42.312z M-159.266,42.749h-5.63V37.17h5.63V42.749      L-159.266,42.749z M-166.221,44.062h8.279v-8.203h-8.279V44.062L-166.221,44.062z M-157.5,44.5h-9.163v-9.079h9.163V44.5      L-157.5,44.5z"/><polygon points="-166.149,44.133 -166.292,43.991 -158.013,35.787 -157.871,35.929     "/></g></g></g><rect x="-179" y="58" display="inline" width="35" height="32.5"/><rect x="-136.5" y="58" display="inline" width="35" height="32.5"/><rect x="-94" y="58" display="inline" width="35" height="32.5"/><rect x="-50" y="58" display="inline" width="35" height="32.5"/><rect x="-126.514" y="34.815" display="inline" width="10.261" height="10.185"/><rect x="-126.477" y="31.766" display="inline" width="0.522" height="2.337"/><rect x="-116.813" y="31.766" display="inline" width="0.523" height="2.337"/><rect x="-127" y="32.337" display="inline" width="11.233" height="0.572"/><g display="inline"><rect x="-83.805" y="33.844" width="10.305" height="10.156"/><rect x="-76.809" y="28.707" width="3.308" height="3.261"/></g><rect x="-178.5" y="22.5" display="inline" stroke="#FFFFFF" stroke-miterlimit="10" width="30" height="30"/><rect x="-136.5" y="22.5" display="inline" stroke="#FFFFFF" stroke-miterlimit="10" width="30" height="30"/><rect x="-93.5" y="22.5" display="inline" stroke="#FFFFFF" stroke-miterlimit="10" width="30" height="30"/><rect x="-49.5" y="22.5" display="inline" stroke="#FFFFFF" stroke-miterlimit="10" width="30" height="30"/></g><g xmlns:default="http://www.w3.org/2000/svg"><path d="M50,0C22.386,0,0,22.386,0,50s22.386,50,50,50s50-22.386,50-50S77.614,0,50,0z M78.456,31.282l8.664-4.994   c0.956-0.553,2.18-0.225,2.73,0.733c0.553,0.959,0.223,2.18-0.734,2.733l-8.661,4.993c-0.96,0.555-2.181,0.227-2.731-0.73   C77.171,33.06,77.502,31.834,78.456,31.282z M48,6c0-1.104,0.896-2,2-2s2,0.896,2,2v10c0,1.104-0.896,2-2,2s-2-0.896-2-2V6z    M4,49.994c0-1.105,0.896-2.001,2.001-2.001L16,47.996c1.106-0.001,2.001,0.895,2.001,2c-0.001,1.104-0.897,1.999-2,1.999L6,51.993   C4.896,51.993,4,51.098,4,49.994z M21.552,68.727l-8.662,4.998c-0.957,0.553-2.18,0.225-2.731-0.731   c-0.553-0.958-0.224-2.181,0.733-2.733l8.66-4.996c0.959-0.555,2.181-0.227,2.733,0.73C22.837,66.951,22.507,68.175,21.552,68.727z    M22.289,33.999c-0.553,0.956-1.776,1.283-2.731,0.731l-8.66-5.002c-0.957-0.552-1.284-1.775-0.732-2.731   c0.552-0.957,1.776-1.285,2.732-0.732l8.659,5.001C22.515,31.818,22.842,33.041,22.289,33.999z M34.725,80.441l-5.003,8.659   c-0.553,0.957-1.775,1.284-2.731,0.732c-0.958-0.554-1.284-1.777-0.731-2.734l5.002-8.656c0.554-0.96,1.775-1.287,2.732-0.734   S35.276,79.486,34.725,80.441z M34.001,22.287c-0.956,0.552-2.18,0.224-2.731-0.733l-4.999-8.661   c-0.553-0.957-0.225-2.18,0.731-2.731c0.956-0.553,2.181-0.225,2.732,0.732l4.999,8.661C35.286,20.511,34.958,21.734,34.001,22.287   z M35.86,31.86c0.871-0.679,2.127-0.523,2.807,0.348l12.322,15.808l15.014,0.006c1.104,0,2,0.896,1.998,2c0,1.107-0.896,2-2.002,2   l-15.997-0.006c-0.706,0.001-1.322-0.364-1.678-0.913L35.512,34.667C34.833,33.795,34.989,32.539,35.86,31.86z M51.986,94.002   c0,1.105-0.896,2-1.999,2c-1.107-0.001-2.001-0.897-2.001-2.003l0.005-9.997c-0.001-1.108,0.894-2.003,1.998-2.002   c1.105,0,2.001,0.898,2.001,2.002L51.986,94.002z M72.987,89.847c-0.959,0.553-2.182,0.224-2.734-0.734l-4.994-8.66   c-0.555-0.96-0.227-2.182,0.73-2.732c0.957-0.553,2.182-0.222,2.733,0.733l4.996,8.662C74.271,88.072,73.943,89.295,72.987,89.847z    M73.755,12.91l-5.005,8.654c-0.554,0.96-1.775,1.287-2.731,0.733c-0.956-0.553-1.282-1.779-0.732-2.734l5.007-8.657   c0.552-0.957,1.776-1.284,2.731-0.73C73.982,10.73,74.307,11.953,73.755,12.91z M89.829,73.018   c-0.554,0.958-1.777,1.283-2.734,0.73l-8.655-5.003c-0.96-0.554-1.286-1.776-0.733-2.731c0.553-0.957,1.779-1.283,2.734-0.732   l8.657,5.005C90.055,70.838,90.382,72.062,89.829,73.018z M93.999,52.021l-9.997-0.006c-1.108,0.001-2.002-0.895-2.001-1.999   c0-1.105,0.899-2.001,2.002-2.001l10,0.006c1.104,0,2,0.896,1.998,2C96.001,51.129,95.104,52.021,93.999,52.021z"/></g></symbol><symbol xmlns="http://www.w3.org/2000/svg" id="icons:8168" iconId="8168" viewBox="0 0 100 100"><g xmlns:default="http://www.w3.org/2000/svg"><g><path d="M67.559,26.725H32.439C35.217,31.948,41.484,38.547,50,45.013C58.516,38.547,64.781,31.948,67.559,26.725z"/><path d="M81.127,85.741v-8.986c0-10.228-9.164-20.173-17.713-27.224c8.523-7.428,17.713-17.798,17.713-27.981v-7.291    c3.396-0.571,5.986-3.518,5.986-7.076C87.113,3.216,83.896,0,79.93,0H20.07c-3.967,0-7.184,3.216-7.184,7.183    c0,3.558,2.59,6.504,5.986,7.076v7.291c0,10.183,9.189,20.554,17.713,27.981c-8.551,7.051-17.713,16.996-17.713,27.224v8.986    c-3.396,0.57-5.986,3.518-5.986,7.075c0,3.967,3.217,7.184,7.184,7.184H79.93c3.967,0,7.184-3.217,7.184-7.184    C87.113,89.259,84.523,86.312,81.127,85.741z M73.943,81.923L50.016,63.95L26.055,81.927v-5.172    c0-10.817,16.746-23.264,22.225-27.047C42.801,45.65,26.055,32.367,26.055,21.55v-7.183h47.889v7.183    c0,10.817-16.744,24.101-22.225,28.158c5.48,3.783,22.225,16.229,22.225,27.047V81.923z"/></g></g></symbol><symbol xmlns="http://www.w3.org/2000/svg" id="icons:116381" iconId="116381" viewBox="0 0 48 48"><g xmlns:default="http://www.w3.org/2000/svg"><rect x="1" y="18.6" width="33.1" height="2"/><path d="M40,48H9.8V36.6C8.1,35.4,2.4,31.3,1,25.2L0.8,24h32.3V0H48l0,25.3c-0.1,0.4-2.5,8.5-8,11.5V48z M11.8,46   H38V35.6l0.6-0.3c4.7-2.2,7.1-9.4,7.4-10.4V2H35.1v24H3.3c1.9,5.5,7.9,9.1,8,9.1l0.5,0.3L11.8,46z"/></g></symbol><symbol xmlns="http://www.w3.org/2000/svg" id="icons:1183403" iconId="1183403" viewBox="0 0 100 100"><g xmlns:default="http://www.w3.org/2000/svg"><path d="M60.846,92.974H39.153c-0.621,0-1.125-0.504-1.125-1.125V70.734L19.742,81.291   c-0.26,0.149-0.566,0.189-0.854,0.112c-0.288-0.077-0.534-0.266-0.684-0.524L7.359,62.093c-0.148-0.258-0.189-0.565-0.112-0.854   c0.077-0.289,0.266-0.534,0.524-0.683L26.058,50L7.771,39.441c-0.538-0.311-0.723-0.999-0.412-1.537l10.846-18.786   c0.312-0.538,1.003-0.722,1.537-0.412l18.286,10.557V8.151c0-0.621,0.504-1.125,1.125-1.125h21.692   c0.621,0,1.125,0.504,1.125,1.125v21.114l18.287-10.557c0.537-0.312,1.226-0.126,1.537,0.412l10.846,18.786   c0.311,0.538,0.126,1.226-0.412,1.537L73.942,50l18.286,10.557c0.259,0.149,0.447,0.395,0.524,0.683   c0.077,0.288,0.036,0.595-0.112,0.854L81.795,80.879c-0.149,0.258-0.396,0.447-0.684,0.524c-0.288,0.077-0.595,0.037-0.854-0.112   L61.971,70.733v21.116C61.971,92.47,61.467,92.974,60.846,92.974z M40.278,90.724h19.442V68.785c0-0.402,0.215-0.773,0.562-0.974   c0.348-0.201,0.777-0.201,1.125,0l19,10.97l9.721-16.838L71.13,50.974c-0.348-0.201-0.562-0.572-0.562-0.974   s0.215-0.773,0.562-0.974l18.999-10.97l-9.721-16.837l-19,10.969c-0.348,0.201-0.777,0.201-1.125,0   c-0.348-0.201-0.562-0.572-0.562-0.974V9.276H40.278v21.937c0,0.402-0.215,0.773-0.562,0.974c-0.348,0.201-0.777,0.201-1.125,0   L19.592,21.218L9.871,38.056l18.999,10.97c0.348,0.201,0.562,0.572,0.562,0.974s-0.215,0.773-0.562,0.974L9.871,61.942   l9.721,16.838l18.999-10.969c0.348-0.201,0.777-0.201,1.125,0c0.348,0.201,0.562,0.572,0.562,0.974V90.724z"/></g></symbol><symbol xmlns="http://www.w3.org/2000/svg" id="icons:1550021" iconId="1550021" viewBox="0 0 100 100"><path d="M26.676,62.385c-0.396,0.661-9.68,16.251-9.68,21.731c0,5.811,4.728,10.538,10.538,10.538s10.538-4.728,10.538-10.538  c0-5.48-9.284-21.07-9.68-21.731C28.031,61.781,27.037,61.781,26.676,62.385z M27.534,92.654c-4.708,0-8.538-3.83-8.538-8.538  c0-3.7,5.543-14.059,8.538-19.242c2.995,5.184,8.538,15.541,8.538,19.242C36.072,88.824,32.242,92.654,27.534,92.654z M82,38h-8  c-0.553,0-1,0.448-1,1v5H55.839C53.171,44,51,41.829,51,39.161V18h5c0.553,0,1-0.448,1-1V9c0-0.552-0.447-1-1-1H21  c-0.553,0-1,0.448-1,1v8c0,0.552,0.447,1,1,1h5v20.783C26,55.444,39.556,69,56.217,69H73v5c0,0.553,0.447,1,1,1h8  c0.553,0,1-0.447,1-1V39C83,38.448,82.553,38,82,38z M22,16v-6h33v6H22z M49,18v3H28v-3H49z M68,67H56.217  C40.658,67,28,54.342,28,38.783V23h21v16.161C49,42.932,52.068,46,55.839,46H68V67z M73,67h-3V46h3V67z M81,73h-6V40h6V73z"/></symbol><symbol xmlns="http://www.w3.org/2000/svg" id="icons:321313" iconId="321313" viewBox="0 0 53 50"><path d="M53,29h-3v-2c0-0.55-0.45-1-1-1h-6c-0.55,0-1,0.45-1,1v2H23.47C22.11,29,21,27.89,21,26.53V11h2c0.55,0,1-0.45,1-1V4  c0-0.55-0.45-1-1-1h-2V0H3v3H1C0.45,3,0,3.45,0,4v6c0,0.55,0.45,1,1,1h2v21.43C3,40.46,9.54,47,17.57,47H42v2c0,0.55,0.45,1,1,1h6  c0.55,0,1-0.45,1-1v-2h3V29z M5,2h14v1H5V2z M2,9V5h1h18h1v4h-1H3H2z M17.57,45C10.64,45,5,39.36,5,32.43V11h14v15.53  c0,2.47,2.01,4.47,4.47,4.47H42v14H17.57z M48,48h-4v-1V29v-1h4v1v18V48z M51,45h-1V31h1V45z"/></symbol><symbol xmlns="http://www.w3.org/2000/svg" id="icons:25495" iconId="25495" viewBox="0 0 100 100"><g xmlns:default="http://www.w3.org/2000/svg"><path d="M51.248,94.834c-0.002,0-0.003,0-0.005,0c-0.427,0-0.864-0.005-1.299-0.016c-11.838-0.285-19.833-4.263-23.763-11.824   c-5.174-9.952-2.999-25.662,6.462-46.696C39.542,20.96,48,8.212,48.085,8.085l1.945-2.919l1.903,2.947   c0.085,0.131,8.572,13.331,15.475,29.034c9.471,21.544,11.598,37.381,6.321,47.069C69.892,91.261,62.328,94.834,51.248,94.834z    M49.971,13.691c-2.864,4.613-8.392,13.952-13.155,24.549c-8.71,19.382-10.975,34.123-6.55,42.632   c3.099,5.958,9.757,9.102,19.789,9.344c0.398,0.009,0.798,0.014,1.189,0.015c0.001,0,0.003,0,0.005,0   c9.396,0,15.426-2.687,18.438-8.215c4.492-8.246,2.255-23.102-6.469-42.964C58.419,28.127,52.833,18.434,49.971,13.691z"/><path d="M50,84.609"/><path d="M43.706,85.738c-0.073,0-0.146-0.003-0.22-0.011c-3.251-0.309-6.329-2.477-8.444-5.95   c-2.589-4.251-3.166-9.461-1.504-13.597c0.474-1.18,1.814-1.751,2.993-1.278c1.179,0.474,1.751,1.814,1.278,2.993   c-1.114,2.773-0.657,6.496,1.164,9.487c1.332,2.188,3.182,3.594,4.948,3.762c1.265,0.12,2.194,1.243,2.074,2.509   C45.882,84.845,44.879,85.738,43.706,85.738z"/></g></symbol><symbol xmlns="http://www.w3.org/2000/svg" id="icons:16634" iconId="16634" viewBox="16.359 0 67.282 100"><path d="M83.641,33.641c0-2.896-2.923-5.37-3.638-8.04c-0.739-2.763,0.536-6.364-0.864-8.783c-1.421-2.455-5.188-3.142-7.18-5.133 c-1.992-1.992-2.681-5.76-5.136-7.181c-2.417-1.4-6.02-0.126-8.782-0.865C55.37,2.924,52.896,0,50,0 c-2.896,0-5.37,2.924-8.041,3.639c-2.763,0.739-6.363-0.536-8.783,0.865c-2.454,1.42-3.142,5.188-5.135,7.181 c-1.993,1.991-5.76,2.68-7.179,5.133c-1.4,2.419-0.126,6.02-0.865,8.783c-0.715,2.671-3.638,5.144-3.638,8.04 c0,2.896,2.923,5.37,3.638,8.04c0.739,2.763-0.535,6.363,0.865,8.783c1.42,2.455,5.188,3.142,7.179,5.134 c1.993,1.991,2.68,5.76,5.135,7.179c0.468,0.271,0.22,0.271,0.22,0.271c0.584,0.141,0.814-0.274,0.814-0.921v-8.25 c0-0.442,0.088-1.02-0.14-1.502c-5.129-4.3-8.325-10.665-8.597-17.801c-0.029-0.315,0.014-0.628,0.014-0.934 c0.001-13.503,10.98-24.449,24.481-24.45c13.501,0.001,24.463,10.945,24.464,24.45c0,0.307-0.012,0.618-0.04,0.934 c-0.271,7.135-3.339,13.5-8.469,17.801c-0.228,0.482-0.136,1.06-0.136,1.502v8.25c0,0.646,0.23,1.062,0.814,0.921 c0,0-0.125,0,0.344-0.271c2.454-1.419,3.081-5.188,5.072-7.179c1.991-1.992,5.728-2.682,7.147-5.134 c1.4-2.42,0.111-6.02,0.852-8.783C80.731,39.011,83.641,36.537,83.641,33.641z"/><path d="M50,58.09c-0.355,0-0.726-0.022-1.105-0.057c-4.058-0.183-7.703-1.35-11.015-3.282c-0.39,0-0.511,0.293-0.511,0.782v6.754 c0,0.646,0,1.705,0,2.354v34.663c0,0.646,0.289,0.888,0.831,0.532l10.894-7.184c0.542-0.354,1.388-0.354,1.931,0l10.796,7.184 c0.542,0.355,0.812,0.114,0.812-0.532V64.641c0-0.648,0-1.707,0-2.354v-6.754c0-0.489-0.121-0.784-0.512-0.782 c-3.312,1.933-7.034,3.1-11.092,3.282C50.649,58.067,50.355,58.09,50,58.09z"/><path d="M50,11.605c-12.15,0-22.036,9.886-22.036,22.036c0,12.149,9.885,22.036,22.036,22.036s22.035-9.885,22.035-22.036 S62.15,11.605,50,11.605z"/></symbol></svg>